<?xml version="1.0" encoding="utf-8"?>
<!-- Generator: Adobe Illustrator 19.1.0, SVG Export Plug-In . SVG Version: 6.00 Build 0)  -->
<svg version="1.1" id="Isolation_Mode" xmlns="http://www.w3.org/2000/svg" xmlns:xlink="http://www.w3.org/1999/xlink" x="0px"
	 y="0px" viewBox="-184 363 241.6 68" style="enable-background:new -184 363 241.6 68;" xml:space="preserve">
<style type="text/css">
	.st0{fill:#0072BB;}
	.st1{fill:#FFFFFF;}
	.st2{fill:#1A233C;}
</style>
<g>
	<g>
		<path class="st0" d="M-135.9,363h-41c-3.9,0-7.1,3.2-7.1,7.1v41c0,3.9,3.2,7.1,7.1,7.1h21l17.1,12.9l0.1-12.9h2.7
			c3.9,0,7.1-3.2,7.1-7.1v-41C-128.9,366.2-132,363-135.9,363z"/>
		<path class="st1" d="M-151.2,409.6l-5.1-6l-5.9,4.1l-1.7-6.4l-10,0.3l3.8-6.7l-8.2-3.7l7.6-3.4l-3.7-7.4l7.8,1.2l0.8-7l4.9,3.3
			l2.3-7l4.8,6.4l4.6-3.3l1.8,5.4l7.5-2.4l-2.6,8.3l7.7,2.6l-7.3,5.4l4.5,5.5l-7.2,0.6l1.2,6.3l-5.9-2.7L-151.2,409.6L-151.2,409.6z
			"/>
	</g>
	<g>
		<path class="st2" d="M-118.5,371.4h8.6v22l-0.2,0.9l10-12h10.9l-11.3,12.7l11.2,17.6h-10.9l-9.9-17.2l0.2,1v16.3h-8.7
			L-118.5,371.4L-118.5,371.4z"/>
		<path class="st2" d="M-69,409.3c-1.1,1.4-3,4-7.9,4c-7.2,0-12.6-5.8-12.6-15.3c0-11.9,7.5-16.4,13.2-16.4c3.3,0,6,1.7,7.5,4.6
			v-3.9h8.2v30.3H-69L-69,409.3L-69,409.3z M-71.2,390.1c-0.9-0.9-2.2-1.5-3.4-1.5c-1.6,0-3.2,0.9-4.3,2.2c-1.5,1.9-1.8,4.3-1.8,6.7
			c0,1.9,0.2,3.7,0.9,5.2c1.2,2.6,3.1,3.6,4.8,3.6c0.5,0,2.2-0.1,3.7-1.7c1.8-2,2.2-4.6,2.2-7.4C-69,393.2-70.1,391.2-71.2,390.1z"
			/>
		<path class="st2" d="M-46.9,382.3v3.6c2.1-3,4.9-4.4,8.6-4.4c7.5,0,12.5,6.2,12.5,15.9c0,9.2-5.1,16-12.9,16c-4.7,0-6.6-2-8-3.4
			v12.1h-8.6v-39.8H-46.9z M-43.2,389.2c-3.3,1.7-3.6,5.9-3.6,8.5c0,2,0.2,4,1.1,5.5c1.2,2.3,3.2,3,5,3c4.4,0,6.1-4.4,6.1-9.3
			c0-3.4-1.1-8.3-6-8.3C-41.4,388.6-42.4,388.8-43.2,389.2z"/>
		<path class="st2" d="M8.7,397.4c0,10.1-7.2,16.1-16.2,16.1c-10,0-15.1-7.4-15.1-16c0-9,5.7-16.1,16.1-16.1
			C3.6,381.5,8.7,389.2,8.7,397.4z M-1.7,391.1c-1.6-2.3-3.7-2.7-5.1-2.7c-1,0-2.2,0.2-3.3,0.8c-3.4,1.9-3.7,6.2-3.7,8.3
			c0,1.1,0.1,2.3,0.4,3.4c1.1,4.9,4.5,5.7,6.5,5.7c2.2,0,4-1,5.3-2.8c1.5-2.2,1.6-4.9,1.6-6.5C-0.2,395.4-0.3,393.1-1.7,391.1z"/>
		<path class="st2" d="M19.2,402c0.4,2.2,0.8,5,6.5,5c1.2,0,4.3-0.2,4.3-2.8c0-1.8-1.5-2.3-3.4-2.8c-0.8-0.2-4.8-1.2-5.7-1.4
			c-3.4-0.9-8.9-2.2-8.9-9c0-1.7,0.3-4.8,3.6-7.2c2.2-1.5,5.3-2.4,9.1-2.4c3,0,6.2,0.5,8.8,2.3c2.9,1.9,4.1,4.5,4.4,8l-8.1,0.4
			c-0.2-1-0.3-1.8-0.8-2.5c-0.1-0.2-1.3-1.9-4.6-1.9c-2.9,0-4.1,0.9-4.1,2.5c0,1.2,0.8,1.9,3.2,2.5c0.7,0.2,4.2,1,5,1.2
			c3.9,0.9,10.3,2.5,10.3,9.5c0,7.2-6.2,10.2-13.3,10.2c-2.4,0-4.3-0.3-5.8-0.7c-2-0.5-5.3-1.7-7.3-5.1c-1.3-2.2-1.3-4-1.3-5.4
			L19.2,402z"/>
		<path class="st2" d="M44.7,373.3h8.6v9h4.3v6.5h-4.3v23.7h-8.6v-23.7h-4.3v-6.5h4.3V373.3z"/>
	</g>
</g>
</svg>
